HIERARCHY
ROOT Hips
{
 OFFSET 0.000000 0.000000 0.000000
 CHANNELS 6 Xposition Yposition Zposition Yrotation Xrotation Zrotation
 JOINT Chest
 {
  OFFSET 0.000000 9.585900 0.002600
  CHANNELS 3 Yrotation Xrotation Zrotation
  JOINT Chest2
  {
   OFFSET 0.000000 9.601200 -0.005300
   CHANNELS 3 Yrotation Xrotation Zrotation
   JOINT Chest3
   {
    OFFSET 0.000000 9.561800 0.000000
    CHANNELS 3 Yrotation Xrotation Zrotation
    JOINT Chest4
    {
     OFFSET 0.000000 9.552100 0.000000
     CHANNELS 3 Yrotation Xrotation Zrotation
     JOINT Neck
     {
      OFFSET 0.000000 14.453000 0.000000
      CHANNELS 3 Yrotation Xrotation Zrotation
      JOINT Head
      {
       OFFSET 0.000000 8.936500 -0.011300
       CHANNELS 3 Yrotation Xrotation Zrotation
       End Site
       {
        OFFSET 0.000000 17.073600 -0.006000
       }
      }
     }
     JOINT RightCollar
     {
      OFFSET -2.921100 9.558500 0.000000
      CHANNELS 3 Yrotation Xrotation Zrotation
      JOINT RightShoulder
      {
       OFFSET -13.519700 0.000000 0.000000
       CHANNELS 3 Yrotation Xrotation Zrotation
       JOINT RightElbow
       {
        OFFSET 0.000000 -29.696600 0.000000
        CHANNELS 3 Yrotation Xrotation Zrotation
        JOINT RightWrist
        {
         OFFSET 0.000000 -24.004700 0.000000
         CHANNELS 3 Yrotation Xrotation Zrotation
         End Site
         {
          OFFSET 0.000000 -17.728500 0.000000
         }
        }
       }
      }
     }
     JOINT LeftCollar
     {
      OFFSET 2.921100 9.558500 0.000000
      CHANNELS 3 Yrotation Xrotation Zrotation
      JOINT LeftShoulder
      {
       OFFSET 13.519700 0.000000 0.000000
       CHANNELS 3 Yrotation Xrotation Zrotation
       JOINT LeftElbow
       {
        OFFSET 0.000000 -29.696600 0.000000
        CHANNELS 3 Yrotation Xrotation Zrotation
        JOINT LeftWrist
        {
         OFFSET 0.000000 -24.004700 0.000000
         CHANNELS 3 Yrotation Xrotation Zrotation
         End Site
         {
          OFFSET 0.000000 -17.728500 0.000000
         }
        }
       }
      }
     }
    }
   }
  }
 }
 JOINT RightHip
 {
  OFFSET -7.771700 -0.012900 -0.001300
  CHANNELS 3 Yrotation Xrotation Zrotation
  JOINT RightKnee
  {
   OFFSET 0.000000 -40.869800 0.001200
   CHANNELS 3 Yrotation Xrotation Zrotation
   JOINT RightAnkle
   {
    OFFSET 0.000000 -39.717900 0.002100
    CHANNELS 3 Yrotation Xrotation Zrotation
    JOINT RightToe
    {
     OFFSET 0.000000 -4.965400 11.033500
     CHANNELS 3 Yrotation Xrotation Zrotation
     End Site
     {
      OFFSET 0.000000 -1.423100 5.872300
     }
    }
   }
  }
 }
 JOINT LeftHip
 {
  OFFSET 7.771700 -0.012900 -0.001300
  CHANNELS 3 Yrotation Xrotation Zrotation
  JOINT LeftKnee
  {
   OFFSET 0.000000 -40.869800 0.001200
   CHANNELS 3 Yrotation Xrotation Zrotation
   JOINT LeftAnkle
   {
    OFFSET 0.000000 -39.717900 0.002100
    CHANNELS 3 Yrotation Xrotation Zrotation
    JOINT LeftToe
    {
     OFFSET 0.000000 -4.965400 11.033500
     CHANNELS 3 Yrotation Xrotation Zrotation
     End Site
     {
      OFFSET 0.000000 -1.423100 5.872300
     }
    }
   }
  }
 }
}
MOTION
Frames: 7
Frame Time: 0.008333
0.000000 85.388000 0.000000 0.000000 -5.767877 0.000000 0.000000 11.653817 0.000000 0.000000 -5.885947 0.000000 0.000000 -0.000000 0.000000 0.000000 -0.000000 0.000000 0.000000 12.528835 0.000000 0.000000 0.711642 0.000000 0.000000 -0.000000 0.000000 0.000000 0.000000 -90.000000 0.000000 -2.309062 0.000000 0.000000 2.309062 0.000000 0.000000 -0.000000 0.000000 0.000000 -0.000000 90.000000 0.000000 -2.309062 0.000000 0.000000 2.309062 0.000000 0.000000 8.520406 0.000000 0.000000 1.905762 0.000000 -0.000000 -4.658285 0.000000 0.000000 -0.000000 0.000000 0.000000 8.520406 0.000000 0.000000 1.905762 0.000000 -0.000000 -4.658285 0.000000 0.000000 -0.000000 0.000000
-15.402250 57.784562 49.874004 178.967986 -46.690589 -0.555283 2.206467 23.216906 4.970885 0.222833 3.552652 0.554725 0.376160 5.716696 0.900914 1.740947 19.707032 3.376645 2.192345 19.822735 -3.381270 5.015658 1.220954 -6.826077 1.055752 3.345187 -1.358538 5.076483 -17.338570 -6.877878 163.930357 -35.837643 -156.509447 18.168121 -17.427343 -51.830547 -6.506606 2.662592 0.145029 12.064758 -9.580857 -6.820180 -163.358780 -38.805387 155.432952 -5.356687 -15.521863 32.712804 9.085338 -24.140441 -7.299084 -3.685933 65.887013 -2.326482 5.863241 8.498119 7.136847 -0.057076 0.063159 -0.030525 -7.967964 -30.655799 -0.992126 25.871125 61.164441 20.272105 -8.726529 36.042520 3.477556 0.870742 -20.996646 -5.305370
-15.399556 57.785929 49.874145 178.898005 -46.690710 -0.502770 2.222908 23.275554 4.997092 0.221275 3.571327 0.559711 0.373702 5.745052 0.908676 1.731178 19.747177 3.393753 2.190966 19.784022 -3.438061 5.032670 1.153166 -6.931406 1.058754 3.246158 -1.409636 4.950658 -17.316648 -6.835113 163.893084 -35.800888 -156.447731 18.153560 -17.397744 -51.837418 -6.425622 2.586909 0.165822 12.171868 -9.597413 -6.846862 -163.280691 -38.745826 155.358355 -5.340631 -15.486028 32.677500 9.165009 -24.150968 -7.322889 -3.620795 65.902215 -2.235011 5.852910 8.495617 7.131253 -0.066642 0.067076 -0.025739 -7.943696 -30.654119 -0.965186 25.870454 61.164995 20.242990 -8.752743 36.079328 3.461249 0.885177 -21.017053 -5.298755
-15.392678 57.785584 49.876334 178.885563 -46.677351 -0.515711 2.212642 23.308820 5.048377 0.220071 3.587349 0.564833 0.371874 5.769355 0.916660 1.724439 19.780956 3.413114 2.185607 19.751970 -3.495540 5.042238 1.097528 -7.036318 1.062937 3.149971 -1.477244 4.847735 -17.303541 -6.773628 163.860359 -35.773203 -156.390857 18.136737 -17.367381 -51.824051 -6.367265 2.525505 0.182616 12.257428 -9.615704 -6.865159 -163.195350 -38.672024 155.272795 -5.329197 -15.448185 32.635580 9.182568 -24.175186 -7.311075 -3.578139 65.910656 -2.174937 5.835702 8.494779 7.125215 -0.053859 0.074726 -0.025450 -8.004165 -30.676438 -0.887140 25.905204 61.178687 20.224997 -8.790402 36.119089 3.434262 0.904075 -21.040277 -5.288480
-15.388216 57.785763 49.878247 178.874412 -46.670473 -0.514952 2.202112 23.330600 5.075549 0.214139 3.605092 0.578631 0.381368 5.762094 0.899453 1.717558 19.832132 3.463029 2.173075 19.704201 -3.569466 5.057209 1.084372 -7.122989 1.061497 3.081137 -1.539648 4.785836 -17.315311 -6.718112 163.835464 -35.754934 -156.345361 18.118804 -17.335781 -51.797667 -6.326350 2.482226 0.195647 12.326245 -9.634302 -6.877370 -163.113898 -38.600215 155.198876 -5.318229 -15.414979 32.603533 9.193214 -24.192094 -7.310000 -3.544944 65.921409 -2.138597 5.837188 8.486169 7.120959 -0.053818 0.084184 -0.021538 -8.015094 -30.687366 -0.867966 25.968367 61.162238 20.288516 -8.868500 36.158126 3.380057 0.921815 -21.032613 -5.275745
-15.383107 57.788239 49.878313 178.839328 -46.684749 -0.501742 2.224473 23.352715 5.095589 0.200092 3.628264 0.608510 0.384836 5.762306 0.884294 1.717897 19.863932 3.510583 2.154770 19.676091 -3.637803 5.079259 1.067477 -7.213523 1.032427 3.054829 -1.515352 4.820479 -17.345763 -6.791302 163.840229 -35.745595 -156.366063 18.098974 -17.304218 -51.763790 -6.302265 2.455652 0.205663 12.355956 -9.654558 -6.924666 -162.995712 -38.531639 155.103831 -5.302523 -15.389353 32.587906 9.218479 -24.184979 -7.299113 -3.538037 65.928248 -2.124822 5.844174 8.468517 7.114104 -0.055840 0.100727 -0.016340 -8.009429 -30.679639 -0.845969 25.983204 61.163238 20.301144 -8.884881 36.216320 3.370823 0.930641 -21.073363 -5.282704
-15.377751 57.788453 49.880849 178.824771 -46.681690 -0.507847 2.220267 23.371421 5.139748 0.204620 3.628503 0.608795 0.379127 5.785496 0.897926 1.719584 19.863306 3.524938 2.147395 19.680551 -3.680567 5.096102 1.015750 -7.323459 1.010839 3.031479 -1.501818 4.842668 -17.402242 -6.787297 163.850753 -35.753594 -156.343525 18.103164 -17.280914 -51.705755 -6.297694 2.426596 0.179807 12.423365 -9.662340 -6.869346 -163.008987 -38.510058 155.133552 -5.284821 -15.375075 32.588725 9.215685 -24.199286 -7.275609 -3.549781 65.933651 -2.145434 5.849006 8.461162 7.116265 -0.052367 0.105933 -0.019325 -8.032252 -30.694740 -0.817608 26.015611 61.170820 20.328390 -8.881244 36.253190 3.370243 0.923867 -21.082914 -5.290570
